<?xml version="1.0" encoding="UTF-8" standalone="no"?>
<!-- Created with Inkscape (http://www.inkscape.org/) -->

<svg
   xmlns:dc="http://purl.org/dc/elements/1.1/"
   xmlns:cc="http://creativecommons.org/ns#"
   xmlns:rdf="http://www.w3.org/1999/02/22-rdf-syntax-ns#"
   xmlns:svg="http://www.w3.org/2000/svg"
   xmlns="http://www.w3.org/2000/svg"
   xmlns:sodipodi="http://sodipodi.sourceforge.net/DTD/sodipodi-0.dtd"
   xmlns:inkscape="http://www.inkscape.org/namespaces/inkscape"
   width="290.5"
   height="165.66144"
   id="svg2"
   version="1.1"
   inkscape:version="0.48.2 r9819"
   sodipodi:docname="drawing.svg">
  <defs
     id="defs4">
    <marker
       inkscape:stockid="Arrow2Lend"
       orient="auto"
       refY="0"
       refX="0"
       id="Arrow2Lend"
       style="overflow:visible">
      <path
         id="path4152"
         style="font-size:12px;fill-rule:evenodd;stroke-width:0.625;stroke-linejoin:round"
         d="M 8.7185878,4.0337352 -2.2072895,0.01601326 8.7185884,-4.0017078 c -1.7454984,2.3720609 -1.7354408,5.6174519 -6e-7,8.035443 z"
         transform="matrix(-1.1,0,0,-1.1,-1.1,0)"
         inkscape:connector-curvature="0" />
    </marker>
    <marker
       inkscape:stockid="Arrow2Lstart"
       orient="auto"
       refY="0"
       refX="0"
       id="Arrow2Lstart"
       style="overflow:visible">
      <path
         id="path4149"
         style="font-size:12px;fill-rule:evenodd;stroke-width:0.625;stroke-linejoin:round"
         d="M 8.7185878,4.0337352 -2.2072895,0.01601326 8.7185884,-4.0017078 c -1.7454984,2.3720609 -1.7354408,5.6174519 -6e-7,8.035443 z"
         transform="matrix(1.1,0,0,1.1,1.1,0)"
         inkscape:connector-curvature="0" />
    </marker>
    <marker
       inkscape:stockid="Arrow1Lstart"
       orient="auto"
       refY="0"
       refX="0"
       id="Arrow1Lstart"
       style="overflow:visible">
      <path
         id="path4131"
         d="M 0,0 5,-5 -12.5,0 5,5 0,0 z"
         style="fill-rule:evenodd;stroke:#000000;stroke-width:1pt;marker-start:none"
         transform="matrix(0.8,0,0,0.8,10,0)"
         inkscape:connector-curvature="0" />
    </marker>
    <marker
       style="overflow:visible"
       id="DistanceStart"
       refX="0"
       refY="0"
       orient="auto"
       inkscape:stockid="DistanceStart">
      <g
         id="g2300">
        <path
           style="fill:none;stroke:#ffffff;stroke-width:1.14999998;stroke-linecap:square"
           d="M 0,0 2,0"
           id="path2306"
           inkscape:connector-curvature="0" />
        <path
           style="fill:#000000;fill-rule:evenodd;stroke:none"
           d="M 0,0 13,4 9,0 13,-4 0,0 z"
           id="path2302"
           inkscape:connector-curvature="0" />
        <path
           style="fill:none;stroke:#000000;stroke-width:1;stroke-linecap:square"
           d="M 0,-4 0,40"
           id="path2304"
           inkscape:connector-curvature="0" />
      </g>
    </marker>
    <marker
       inkscape:stockid="Arrow1Lend"
       orient="auto"
       refY="0"
       refX="0"
       id="Arrow1Lend"
       style="overflow:visible">
      <path
         id="path3953"
         d="M 0,0 5,-5 -12.5,0 5,5 0,0 z"
         style="fill-rule:evenodd;stroke:#000000;stroke-width:1pt;marker-start:none"
         transform="matrix(-0.8,0,0,-0.8,-10,0)"
         inkscape:connector-curvature="0" />
    </marker>
    <marker
       inkscape:stockid="StopL"
       orient="auto"
       refY="0"
       refX="0"
       id="StopL"
       style="overflow:visible">
      <path
         id="path4120"
         d="M 0,5.65 0,-5.65"
         style="fill:none;stroke:#000000;stroke-width:1pt"
         transform="scale(0.8,0.8)"
         inkscape:connector-curvature="0" />
    </marker>
    <marker
       inkscape:stockid="StopL"
       orient="auto"
       refY="0"
       refX="0"
       id="StopL-5"
       style="overflow:visible">
      <path
         inkscape:connector-curvature="0"
         id="path4120-5"
         d="M 0,5.65 0,-5.65"
         style="fill:none;stroke:#000000;stroke-width:1pt"
         transform="scale(0.8,0.8)" />
    </marker>
    <marker
       inkscape:stockid="StopL"
       orient="auto"
       refY="0"
       refX="0"
       id="marker6486"
       style="overflow:visible">
      <path
         inkscape:connector-curvature="0"
         id="path6488"
         d="M 0,5.65 0,-5.65"
         style="fill:none;stroke:#000000;stroke-width:1pt"
         transform="scale(0.8,0.8)" />
    </marker>
  </defs>
  <sodipodi:namedview
     id="base"
     pagecolor="#ffffff"
     bordercolor="#666666"
     borderopacity="1.0"
     inkscape:pageopacity="0.0"
     inkscape:pageshadow="2"
     inkscape:zoom="2.0439045"
     inkscape:cx="191.42693"
     inkscape:cy="14.639998"
     inkscape:document-units="px"
     inkscape:current-layer="layer1"
     showgrid="true"
     showguides="false"
     inkscape:window-width="1920"
     inkscape:window-height="1148"
     inkscape:window-x="-8"
     inkscape:window-y="-8"
     inkscape:window-maximized="1"
     inkscape:showpageshadow="true"
     fit-margin-top="0"
     fit-margin-left="0"
     fit-margin-right="0"
     fit-margin-bottom="0"
     inkscape:snap-global="true">
    <inkscape:grid
       type="xygrid"
       id="grid3023"
       empspacing="5"
       visible="true"
       enabled="true"
       snapvisiblegridlinesonly="true" />
    <sodipodi:guide
       position="-92.148438,-825"
       orientation="0,744.09448"
       id="guide3073" />
    <sodipodi:guide
       position="651.94604,-825"
       orientation="-1052.3622,0"
       id="guide3075" />
    <sodipodi:guide
       position="651.94604,227.3622"
       orientation="0,-744.09448"
       id="guide3077" />
    <sodipodi:guide
       position="-92.148438,227.3622"
       orientation="1052.3622,0"
       id="guide3079" />
  </sodipodi:namedview>
  <metadata
     id="metadata7">
    <rdf:RDF>
      <cc:Work
         rdf:about="">
        <dc:format>image/svg+xml</dc:format>
        <dc:type
           rdf:resource="http://purl.org/dc/dcmitype/StillImage" />
        <dc:title></dc:title>
      </cc:Work>
    </rdf:RDF>
  </metadata>
  <g
     inkscape:label="Layer 1"
     inkscape:groupmode="layer"
     id="layer1"
     transform="translate(-92.148437,-61.700745)">
    <rect
       style="fill:none;stroke:#000000;stroke-width:1;stroke-linejoin:round;stroke-miterlimit:4;stroke-dasharray:none;stroke-dashoffset:0.56692915"
       id="rect3025"
       width="80"
       height="20"
       x="120"
       y="62.362183" />
    <rect
       style="fill:#ff0000;fill-opacity:1;stroke:#000000;stroke-width:1;stroke-linejoin:round;stroke-miterlimit:4;stroke-dasharray:none;stroke-dashoffset:0.56692914999999999"
       id="rect3025-4"
       width="80"
       height="20"
       x="120"
       y="82.362183" />
    <rect
       style="fill:none;stroke:#000000;stroke-width:1;stroke-linejoin:round;stroke-miterlimit:4;stroke-dasharray:none;stroke-dashoffset:0.56692914999999999;fill-opacity:1"
       id="rect3025-4-0"
       width="80"
       height="20"
       x="120"
       y="102.36218" />
    <rect
       style="fill:none;stroke:#000000;stroke-width:1;stroke-linejoin:round;stroke-miterlimit:4;stroke-dasharray:none;stroke-dashoffset:0.56692915"
       id="rect3025-4-0-9"
       width="80"
       height="20"
       x="120"
       y="122.36218" />
    <rect
       style="fill:#0000ff;fill-opacity:1;stroke:#000000;stroke-width:1;stroke-linejoin:round;stroke-miterlimit:4;stroke-dasharray:none;stroke-dashoffset:0.56692914999999999"
       id="rect3025-4-0-9-4"
       width="80"
       height="20"
       x="120"
       y="142.36218" />
    <rect
       style="fill:none;stroke:#000000;stroke-width:1;stroke-linejoin:round;stroke-miterlimit:4;stroke-dasharray:none;stroke-dashoffset:0.56692915"
       id="rect3025-4-0-9-4-8"
       width="80"
       height="20"
       x="120"
       y="162.36218" />
    <rect
       style="fill:none;stroke:#000000;stroke-width:1;stroke-linejoin:round;stroke-miterlimit:4;stroke-dasharray:none;stroke-dashoffset:0.56692915"
       id="rect3025-4-0-9-4-8-8"
       width="80"
       height="20"
       x="120"
       y="182.36218" />
    <rect
       style="fill:none;stroke:#000000;stroke-width:1;stroke-linejoin:round;stroke-miterlimit:4;stroke-dasharray:none;stroke-dashoffset:0.56692915"
       id="rect3135"
       width="20"
       height="20"
       x="120"
       y="182.36218" />
    <rect
       style="fill:none;stroke:#000000;stroke-width:1;stroke-linejoin:round;stroke-miterlimit:4;stroke-dasharray:none;stroke-dashoffset:0.56692915"
       id="rect3135-2"
       width="20"
       height="20"
       x="140"
       y="182.36218" />
    <rect
       style="fill:none;stroke:#000000;stroke-width:1;stroke-linejoin:round;stroke-miterlimit:4;stroke-dasharray:none;stroke-dashoffset:0.56692915"
       id="rect3135-2-4"
       width="20"
       height="20"
       x="160"
       y="182.36218" />
    <path
       style="fill:none;stroke:#000000;stroke-width:1;stroke-linecap:square;stroke-linejoin:miter;stroke-miterlimit:4;stroke-opacity:1;stroke-dasharray:none;stroke-dashoffset:0;marker-start:url(#StopL);marker-mid:none;marker-end:url(#StopL)"
       d="m 120,212.36218 c 80,0 80,0 80,0"
       id="path3177"
       inkscape:connector-curvature="0" />
    <text
       xml:space="preserve"
       style="font-size:10px;font-style:normal;font-variant:normal;font-weight:normal;font-stretch:normal;text-align:center;line-height:125%;letter-spacing:0px;word-spacing:0px;text-anchor:middle;fill:#000000;fill-opacity:1;stroke:none;font-family:Helvetica;-inkscape-font-specification:Helvetica"
       x="160"
       y="227.36218"
       id="text6470"
       sodipodi:linespacing="125%"><tspan
         sodipodi:role="line"
         id="tspan6472"
         x="160"
         y="227.36218">B</tspan></text>
    <path
       style="fill:none;stroke:#000000;stroke-width:1.32287562;stroke-linecap:square;stroke-linejoin:miter;stroke-miterlimit:4;stroke-opacity:1;stroke-dasharray:none;stroke-dashoffset:0;marker-start:url(#StopL);marker-mid:none;marker-end:url(#StopL)"
       d="m 110,62.362183 c 0,139.999997 0,139.999997 0,139.999997"
       id="path3177-1"
       inkscape:connector-curvature="0" />
    <text
       xml:space="preserve"
       style="font-size:10px;font-style:normal;font-variant:normal;font-weight:normal;font-stretch:normal;text-align:center;line-height:125%;letter-spacing:0px;word-spacing:0px;text-anchor:middle;fill:#000000;fill-opacity:1;stroke:none;font-family:Helvetica;-inkscape-font-specification:Helvetica"
       x="95"
       y="132.36218"
       id="text6470-7"
       sodipodi:linespacing="125%"><tspan
         sodipodi:role="line"
         id="tspan6472-1"
         x="95"
         y="132.36218">N</tspan></text>
    <rect
       style="fill:none;stroke:#000000;stroke-width:1;stroke-linejoin:round;stroke-miterlimit:4;stroke-dasharray:none;stroke-dashoffset:0.56692915"
       id="rect3135-2-4-1"
       width="20"
       height="20"
       x="180"
       y="182.36218" />
    <path
       style="font-size:medium;font-style:normal;font-variant:normal;font-weight:normal;font-stretch:normal;text-indent:0;text-align:start;text-decoration:none;line-height:normal;letter-spacing:normal;word-spacing:normal;text-transform:none;direction:ltr;block-progression:tb;writing-mode:lr-tb;text-anchor:start;baseline-shift:baseline;color:#000000;fill:#000000;fill-opacity:1;fill-rule:nonzero;stroke:none;stroke-width:1;marker:none;visibility:visible;display:inline;overflow:visible;enable-background:accumulate;font-family:Sans;-inkscape-font-specification:Sans"
       d="m 352.14844,100.875 c -8.32931,0 -15.87369,1.10373 -21.375,2.9375 -2.75066,0.91689 -4.97487,1.9988 -6.5625,3.25 -1.58763,1.2512 -2.5625,2.72912 -2.5625,4.3125 0,1.58338 0.97487,3.03005 2.5625,4.28125 1.58763,1.2512 3.81184,2.33311 6.5625,3.25 5.50131,1.83377 13.04569,2.96875 21.375,2.96875 8.32931,0 15.87369,-1.13498 21.375,-2.96875 2.75066,-0.91689 4.97487,-1.9988 6.5625,-3.25 1.58763,-1.2512 2.5625,-2.69787 2.5625,-4.28125 0,-1.58338 -0.97487,-3.0613 -2.5625,-4.3125 -1.58763,-1.2512 -3.81184,-2.33311 -6.5625,-3.25 -5.50131,-1.83377 -13.04569,-2.9375 -21.375,-2.9375 z m 0,1 c 8.23923,0 15.70595,1.08949 21.0625,2.875 2.67828,0.89276 4.83272,1.98343 6.28125,3.125 1.44853,1.14157 2.15625,2.32195 2.15625,3.5 0,1.17805 -0.70772,2.35843 -2.15625,3.5 -1.44853,1.14157 -3.60297,2.20099 -6.28125,3.09375 -5.35655,1.78552 -12.82327,2.90625 -21.0625,2.90625 -8.23923,0 -15.70595,-1.12073 -21.0625,-2.90625 -2.67828,-0.89276 -4.83272,-1.95218 -6.28125,-3.09375 -1.44853,-1.14157 -2.15625,-2.32195 -2.15625,-3.5 0,-1.17805 0.70772,-2.35843 2.15625,-3.5 1.44853,-1.14157 3.60297,-2.23224 6.28125,-3.125 5.35655,-1.78551 12.82327,-2.875 21.0625,-2.875 z"
       id="path3970"
       inkscape:connector-curvature="0" />
    <path
       style="font-size:medium;font-style:normal;font-variant:normal;font-weight:normal;font-stretch:normal;text-indent:0;text-align:start;text-decoration:none;line-height:normal;letter-spacing:normal;word-spacing:normal;text-transform:none;direction:ltr;block-progression:tb;writing-mode:lr-tb;text-anchor:start;baseline-shift:baseline;color:#000000;fill:#000000;fill-opacity:1;fill-rule:nonzero;stroke:none;stroke-width:1;marker:none;visibility:visible;display:inline;overflow:visible;enable-background:accumulate;font-family:Sans;-inkscape-font-specification:Sans"
       d="m 321.64844,121.86218 c 0,0 0.97487,3.03005 2.5625,4.28125 1.58763,1.2512 3.81184,2.33311 6.5625,3.25 5.50131,1.83377 13.04569,2.96875 21.375,2.96875 8.32931,0 15.87369,-1.13498 21.375,-2.96875 2.75066,-0.91689 4.97487,-1.9988 6.5625,-3.25 1.58763,-1.2512 2.5625,-4.28125 2.5625,-4.28125 z m 60,0 c 0,0 -0.70772,2.35843 -2.15625,3.5 -1.44853,1.14157 -3.60297,2.20099 -6.28125,3.09375 -5.35655,1.78552 -12.82327,2.90625 -21.0625,2.90625 -8.23923,0 -15.70595,-1.12073 -21.0625,-2.90625 -2.67828,-0.89276 -4.83272,-1.95218 -6.28125,-3.09375 -1.44853,-1.14157 -2.15625,-3.5 -2.15625,-3.5 z"
       id="path3970-9"
       inkscape:connector-curvature="0"
       sodipodi:nodetypes="cssssscccssssscc" />
    <path
       style="font-size:medium;font-style:normal;font-variant:normal;font-weight:normal;font-stretch:normal;text-indent:0;text-align:start;text-decoration:none;line-height:normal;letter-spacing:normal;word-spacing:normal;text-transform:none;direction:ltr;block-progression:tb;writing-mode:lr-tb;text-anchor:start;baseline-shift:baseline;color:#000000;fill:#000000;fill-opacity:1;fill-rule:nonzero;stroke:none;stroke-width:1;marker:none;visibility:visible;display:inline;overflow:visible;enable-background:accumulate;font-family:Sans;-inkscape-font-specification:Sans"
       d="m 321.64844,131.86218 c 0,0 0.97487,3.03005 2.5625,4.28125 1.58763,1.2512 3.81184,2.33311 6.5625,3.25 5.50131,1.83377 13.04569,2.96875 21.375,2.96875 8.32931,0 15.87369,-1.13498 21.375,-2.96875 2.75066,-0.91689 4.97487,-1.9988 6.5625,-3.25 1.58763,-1.2512 2.5625,-4.28125 2.5625,-4.28125 z m 60,0 c 0,0 -0.70772,2.35843 -2.15625,3.5 -1.44853,1.14157 -3.60297,2.20099 -6.28125,3.09375 -5.35655,1.78552 -12.82327,2.90625 -21.0625,2.90625 -8.23923,0 -15.70595,-1.12073 -21.0625,-2.90625 -2.67828,-0.89276 -4.83272,-1.95218 -6.28125,-3.09375 -1.44853,-1.14157 -2.15625,-3.5 -2.15625,-3.5 z"
       id="path3970-9-4"
       inkscape:connector-curvature="0"
       sodipodi:nodetypes="cssssscccssssscc" />
    <path
       style="font-size:medium;font-style:normal;font-variant:normal;font-weight:normal;font-stretch:normal;text-indent:0;text-align:start;text-decoration:none;line-height:normal;letter-spacing:normal;word-spacing:normal;text-transform:none;direction:ltr;block-progression:tb;writing-mode:lr-tb;text-anchor:start;baseline-shift:baseline;color:#000000;fill:#000000;fill-opacity:1;fill-rule:nonzero;stroke:none;stroke-width:1;marker:none;visibility:visible;display:inline;overflow:visible;enable-background:accumulate;font-family:Sans;-inkscape-font-specification:Sans"
       d="m 321.64844,161.86218 c 0,0 0.97487,3.03005 2.5625,4.28125 1.58763,1.2512 3.81184,2.33311 6.5625,3.25 5.50131,1.83377 13.04569,2.96875 21.375,2.96875 8.32931,0 15.87369,-1.13498 21.375,-2.96875 2.75066,-0.91689 4.97487,-1.9988 6.5625,-3.25 1.58763,-1.2512 2.5625,-4.28125 2.5625,-4.28125 z m 60,0 c 0,0 -0.70772,2.35843 -2.15625,3.5 -1.44853,1.14157 -3.60297,2.20099 -6.28125,3.09375 -5.35655,1.78552 -12.82327,2.90625 -21.0625,2.90625 -8.23923,0 -15.70595,-1.12073 -21.0625,-2.90625 -2.67828,-0.89276 -4.83272,-1.95218 -6.28125,-3.09375 -1.44853,-1.14157 -2.15625,-3.5 -2.15625,-3.5 z"
       id="path3970-9-8"
       inkscape:connector-curvature="0"
       sodipodi:nodetypes="cssssscccssssscc" />
    <path
       style="font-size:medium;font-style:normal;font-variant:normal;font-weight:normal;font-stretch:normal;text-indent:0;text-align:start;text-decoration:none;line-height:normal;letter-spacing:normal;word-spacing:normal;text-transform:none;direction:ltr;block-progression:tb;writing-mode:lr-tb;text-anchor:start;baseline-shift:baseline;color:#000000;fill:#000000;fill-opacity:1;fill-rule:nonzero;stroke:none;stroke-width:1;marker:none;visibility:visible;display:inline;overflow:visible;enable-background:accumulate;font-family:Sans;-inkscape-font-specification:Sans"
       d="m 321.64844,141.86218 c 0,0 0.97487,3.03005 2.5625,4.28125 1.58763,1.2512 3.81184,2.33311 6.5625,3.25 5.50131,1.83377 13.04569,2.96875 21.375,2.96875 8.32931,0 15.87369,-1.13498 21.375,-2.96875 2.75066,-0.91689 4.97487,-1.9988 6.5625,-3.25 1.58763,-1.2512 2.5625,-4.28125 2.5625,-4.28125 z m 60,0 c 0,0 -0.70772,2.35843 -2.15625,3.5 -1.44853,1.14157 -3.60297,2.20099 -6.28125,3.09375 -5.35655,1.78552 -12.82327,2.90625 -21.0625,2.90625 -8.23923,0 -15.70595,-1.12073 -21.0625,-2.90625 -2.67828,-0.89276 -4.83272,-1.95218 -6.28125,-3.09375 -1.44853,-1.14157 -2.15625,-3.5 -2.15625,-3.5 z"
       id="path3970-9-82"
       inkscape:connector-curvature="0"
       sodipodi:nodetypes="cssssscccssssscc" />
    <path
       style="font-size:medium;font-style:normal;font-variant:normal;font-weight:normal;font-stretch:normal;text-indent:0;text-align:start;text-decoration:none;line-height:normal;letter-spacing:normal;word-spacing:normal;text-transform:none;direction:ltr;block-progression:tb;writing-mode:lr-tb;text-anchor:start;baseline-shift:baseline;color:#000000;fill:#000000;fill-opacity:1;fill-rule:nonzero;stroke:none;stroke-width:1;marker:none;visibility:visible;display:inline;overflow:visible;enable-background:accumulate;font-family:Sans;-inkscape-font-specification:Sans"
       d="m 321.64844,151.86218 c 0,0 0.97487,3.03005 2.5625,4.28125 1.58763,1.2512 3.81184,2.33311 6.5625,3.25 5.50131,1.83377 13.04569,2.96875 21.375,2.96875 8.32931,0 15.87369,-1.13498 21.375,-2.96875 2.75066,-0.91689 4.97487,-1.9988 6.5625,-3.25 1.58763,-1.2512 2.5625,-4.28125 2.5625,-4.28125 z m 60,0 c 0,0 -0.70772,2.35843 -2.15625,3.5 -1.44853,1.14157 -3.60297,2.20099 -6.28125,3.09375 -5.35655,1.78552 -12.82327,2.90625 -21.0625,2.90625 -8.23923,0 -15.70595,-1.12073 -21.0625,-2.90625 -2.67828,-0.89276 -4.83272,-1.95218 -6.28125,-3.09375 -1.44853,-1.14157 -2.15625,-3.5 -2.15625,-3.5 z"
       id="path3970-9-5"
       inkscape:connector-curvature="0"
       sodipodi:nodetypes="cssssscccssssscc" />
    <path
       style="fill:none;stroke:#000000;stroke-width:0.99178755px;stroke-linecap:butt;stroke-linejoin:miter;stroke-opacity:1"
       d="m 322.14844,110.354 0,60.51298"
       id="path4062"
       inkscape:connector-curvature="0"
       sodipodi:nodetypes="cc" />
    <path
       style="fill:none;stroke:#000000;stroke-width:0.97080946px;stroke-linecap:butt;stroke-linejoin:miter;stroke-opacity:1"
       d="m 382.14844,112.88566 0,57.98013"
       id="path4062-1"
       inkscape:connector-curvature="0"
       sodipodi:nodetypes="cc" />
    <path
       style="font-size:medium;font-style:normal;font-variant:normal;font-weight:normal;font-stretch:normal;text-indent:0;text-align:start;text-decoration:none;line-height:normal;letter-spacing:normal;word-spacing:normal;text-transform:none;direction:ltr;block-progression:tb;writing-mode:lr-tb;text-anchor:start;baseline-shift:baseline;color:#000000;fill:#000000;fill-opacity:1;fill-rule:nonzero;stroke:none;stroke-width:1;marker:none;visibility:visible;display:inline;overflow:visible;enable-background:accumulate;font-family:Sans;-inkscape-font-specification:Sans"
       d="m 321.64844,170.86218 c 0,0 0.97487,3.03005 2.5625,4.28125 1.58763,1.2512 3.81184,2.33311 6.5625,3.25 5.50131,1.83377 13.04569,2.96875 21.375,2.96875 8.32931,0 15.87369,-1.13498 21.375,-2.96875 2.75066,-0.91689 4.97487,-1.9988 6.5625,-3.25 1.58763,-1.2512 2.5625,-4.28125 2.5625,-4.28125 z m 60,0 c 0,0 -0.70772,2.35843 -2.15625,3.5 -1.44853,1.14157 -3.60297,2.20099 -6.28125,3.09375 -5.35655,1.78552 -12.82327,2.90625 -21.0625,2.90625 -8.23923,0 -15.70595,-1.12073 -21.0625,-2.90625 -2.67828,-0.89276 -4.83272,-1.95218 -6.28125,-3.09375 -1.44853,-1.14157 -2.15625,-3.5 -2.15625,-3.5 z"
       id="path3970-9-8-7"
       inkscape:connector-curvature="0"
       sodipodi:nodetypes="cssssscccssssscc" />
    <rect
       style="fill:#00ff00;fill-opacity:1;stroke:#000000;stroke-width:1;stroke-linejoin:round;stroke-miterlimit:4;stroke-dasharray:none;stroke-dashoffset:0.56692914999999999"
       id="rect3025-4-0-1"
       width="80"
       height="20"
       x="222.14844"
       y="122.36218" />
    <path
       style="fill:none;stroke:#000000;stroke-width:1.04880881px;stroke-linecap:butt;stroke-linejoin:miter;stroke-opacity:1;marker-start:url(#Arrow2Lstart);marker-mid:none;marker-end:url(#Arrow2Lend)"
       d="m 317.14844,132.36218 -110,0"
       id="path4126"
       inkscape:connector-curvature="0" />
  </g>
</svg>
